<svg xmlns="http://www.w3.org/2000/svg" viewBox="0 0 144 144">
  <path d="M34.625 3.03125C33.84375 3.042969 32.980469 3.214844 31.90625 3.5C28.824219 4.3125 11.09375 9.21875 11.09375 9.21875C11.0625 9.226563 11.03125 9.238281 11 9.25C8.191406 10.308594 6.421875 11.304688 5.34375 12.75C4.273438 14.1875 4.035156 15.914063 4.03125 17.96875C4.03125 17.980469 4.03125 17.988281 4.03125 18L4.03125 18.625C4.019531 18.75 4 18.875 4 19L4 40.375C4 43.464844 6.535156 46 9.625 46L40.375 46C43.464844 46 46 43.464844 46 40.375L46 18.84375C46 15.65625 43.148438 13 40 13L10 13C8.878906 13 7.871094 13.320313 7.03125 13.84375C7.757813 12.949219 9.128906 12.105469 11.625 11.15625C11.652344 11.144531 11.660156 11.136719 11.6875 11.125C11.800781 11.09375 29.425781 6.222656 32.40625 5.4375C33.398438 5.175781 34.140625 5.039063 34.65625 5.03125C35.171875 5.023438 35.414063 5.101563 35.53125 5.1875C35.648438 5.273438 35.746094 5.441406 35.84375 5.84375C35.941406 6.246094 36 6.859375 36 7.65625L36 11L38 11L38 7.65625C38 6.789063 37.945313 6.054688 37.78125 5.375C37.617188 4.695313 37.296875 4.027344 36.71875 3.59375C36.140625 3.160156 35.40625 3.019531 34.625 3.03125 Z M 10 15L40 15C41.949219 15 44 16.9375 44 18.84375L44 40.375C44 42.382813 42.382813 44 40.375 44L9.625 44C7.613281 44 6 42.386719 6 40.375L6 20.46875L6.03125 18.8125C6.089844 18.132813 6.4375 17.164063 7.09375 16.40625C7.808594 15.578125 8.785156 15 10 15 Z M 38.5 27C37.117188 27 36 28.117188 36 29.5C36 30.882813 37.117188 32 38.5 32C39.878906 32 41 30.882813 41 29.5C41 28.117188 39.878906 27 38.5 27Z" fill="#FFFFFF" />
</svg>