<svg xmlns="http://www.w3.org/2000/svg" viewBox="0 0 48 48">
  <path d="M8.5 6C7.1364058 6 6 7.1364058 6 8.5L6 11.589844C6 13.886494 7.0554772 16.058837 8.859375 17.480469L19 25.470703L19 40.5 A 1.50015 1.50015 0 0 0 21.371094 41.720703L28.333984 36.748047L28.349609 36.736328L28.371094 36.720703 A 1.50015 1.50015 0 0 0 29 35.177734L29 33.949219L26 30.949219L26 34.728516L22 37.585938L22 26L27.806641 26 A 1.50015 1.50015 0 0 0 28.734375 25.677734L39.140625 17.480469C40.944523 16.058837 42 13.886494 42 11.589844L42 8.5C42 7.1364058 40.863594 6 39.5 6L8.5 6 z M 9 9L39 9L39 11.589844C39 12.969193 38.369258 14.268678 37.285156 15.123047L27.287109 23L20.746094 23 A 1.50015 1.50015 0 0 0 20.707031 22.994141L10.714844 15.123047C9.6307412 14.268678 9 12.969193 9 11.589844L9 9 z M 29.5 28C29.11625 28 28.732453 28.146453 28.439453 28.439453C27.853453 29.024453 27.853453 29.975547 28.439453 30.560547L34.878906 37L28.439453 43.439453C27.853453 44.024453 27.853453 44.975547 28.439453 45.560547C28.731453 45.854547 29.116 46 29.5 46C29.884 46 30.267547 45.853547 30.560547 45.560547L37 39.121094L43.439453 45.560547C43.732453 45.854547 44.116 46 44.5 46C44.884 46 45.267547 45.853547 45.560547 45.560547C46.146547 44.975547 46.146547 44.024453 45.560547 43.439453L39.121094 37L45.560547 30.560547C46.146547 29.975547 46.146547 29.024453 45.560547 28.439453C44.974547 27.853453 44.025453 27.853453 43.439453 28.439453L37 34.878906L30.560547 28.439453C30.267547 28.146453 29.88375 28 29.5 28 z" fill="#FFFFFF" />
</svg>