<svg xmlns="http://www.w3.org/2000/svg" viewBox="0 0 48 48">
  <path d="M20.5 6C12.509634 6 6 12.50964 6 20.5C6 28.49036 12.509634 35 20.5 35C23.956359 35 27.133709 33.779044 29.628906 31.75L39.439453 41.560547 A 1.50015 1.50015 0 1 0 41.560547 39.439453L31.75 29.628906C33.779044 27.133709 35 23.956357 35 20.5C35 12.50964 28.490366 6 20.5 6 z M 20.5 9C26.869047 9 32 14.130957 32 20.5C32 23.602612 30.776198 26.405717 28.791016 28.470703 A 1.50015 1.50015 0 0 0 28.470703 28.791016C26.405717 30.776199 23.602614 32 20.5 32C14.130953 32 9 26.869043 9 20.5C9 14.130957 14.130953 9 20.5 9 z M 24.486328 14.978516 A 1.50015 1.50015 0 0 0 23.439453 15.439453L20.5 18.378906L17.560547 15.439453 A 1.50015 1.50015 0 0 0 16.484375 14.984375 A 1.50015 1.50015 0 0 0 15.439453 17.560547L18.378906 20.5L15.439453 23.439453 A 1.50015 1.50015 0 1 0 17.560547 25.560547L20.5 22.621094L23.439453 25.560547 A 1.50015 1.50015 0 1 0 25.560547 23.439453L22.621094 20.5L25.560547 17.560547 A 1.50015 1.50015 0 0 0 24.486328 14.978516 z" fill="#FFFFFF" />
</svg>