<svg xmlns="http://www.w3.org/2000/svg" viewBox="0 0 48 48"><path d="M20.5 4 A 1.50015 1.50015 0 0 0 19.066406 6L14.640625 6C12.803372 6 11.082924 6.9194511 10.064453 8.4492188L7.6972656 12L7.5 12 A 1.50015 1.50015 0 1 0 7.5 15L8.2636719 15 A 1.50015 1.50015 0 0 0 8.6523438 15.007812L11.125 38.085938C11.423352 40.868277 13.795836 43 16.59375 43L31.404297 43C34.202211 43 36.574695 40.868277 36.873047 38.085938L39.347656 15.007812 A 1.50015 1.50015 0 0 0 39.728516 15L40.5 15 A 1.50015 1.50015 0 1 0 40.5 12L40.302734 12L37.935547 8.4492188C36.916254 6.9202798 35.196001 6 33.359375 6L28.933594 6 A 1.50015 1.50015 0 0 0 27.5 4L20.5 4 z M 14.640625 9L33.359375 9C34.196749 9 34.974746 9.4162203 35.439453 10.113281L36.697266 12L11.302734 12L12.560547 10.113281 A 1.50015 1.50015 0 0 0 12.5625 10.111328C13.025982 9.4151428 13.801878 9 14.640625 9 z M 11.669922 15L36.330078 15L33.890625 37.765625C33.752977 39.049286 32.694383 40 31.404297 40L16.59375 40C15.303664 40 14.247023 39.049286 14.109375 37.765625L11.669922 15 z"/></svg>