<svg xmlns="http://www.w3.org/2000/svg" viewBox="0 0 48 48">
  <path d="M24 4C20.704135 4 18 6.7041348 18 10L11.746094 10 A 1.50015 1.50015 0 0 0 11.476562 9.9785156 A 1.50015 1.50015 0 0 0 11.259766 10L7.5 10 A 1.50015 1.50015 0 1 0 7.5 13L10 13L10 38.5C10 41.519774 12.480226 44 15.5 44L32.5 44C35.519774 44 38 41.519774 38 38.5L38 13L40.5 13 A 1.50015 1.50015 0 1 0 40.5 10L36.746094 10 A 1.50015 1.50015 0 0 0 36.259766 10L30 10C30 6.7041348 27.295865 4 24 4 z M 24 7C25.674135 7 27 8.3258652 27 10L21 10C21 8.3258652 22.325865 7 24 7 z M 13 13L35 13L35 38.5C35 39.898226 33.898226 41 32.5 41L15.5 41C14.101774 41 13 39.898226 13 38.5L13 13 z M 20.476562 17.978516 A 1.50015 1.50015 0 0 0 19 19.5L19 34.5 A 1.50015 1.50015 0 1 0 22 34.5L22 19.5 A 1.50015 1.50015 0 0 0 20.476562 17.978516 z M 27.476562 17.978516 A 1.50015 1.50015 0 0 0 26 19.5L26 34.5 A 1.50015 1.50015 0 1 0 29 34.5L29 19.5 A 1.50015 1.50015 0 0 0 27.476562 17.978516 z" fill="#FFFFFF" />
</svg>