<svg xmlns="http://www.w3.org/2000/svg" viewBox="0 0 48 48">
  <path d="M12.5 4C10.019 4 8 6.019 8 8.5L8 39.5C8 41.981 10.019 44 12.5 44L25.640625 44C24.785625 43.111 24.055516 42.103 23.478516 41L12.5 41C11.673 41 11 40.327 11 39.5L11 8.5C11 7.673 11.673 7 12.5 7L24 7L24 15.5C24 17.981 26.019 20 28.5 20L37 20L37 22.169922C38.045 22.331922 39.053 22.606906 40 23.003906L40 18.5C40 18.0855 39.831922 17.710828 39.560547 17.439453L26.560547 4.4394531C26.289172 4.1680781 25.9145 4 25.5 4L12.5 4 z M 27 9.1210938L34.878906 17L28.5 17C27.673 17 27 16.327 27 15.5L27 9.1210938 z M 35 24C28.925 24 24 28.925 24 35C24 41.075 28.925 46 35 46C41.075 46 46 41.075 46 35C46 28.925 41.075 24 35 24 z M 30 29C30.25575 29 30.511531 29.097469 30.707031 29.292969L35 33.585938L39.292969 29.292969C39.683969 28.901969 40.316031 28.901969 40.707031 29.292969C41.098031 29.683969 41.098031 30.316031 40.707031 30.707031L36.414062 35L40.707031 39.292969C41.098031 39.683969 41.098031 40.316031 40.707031 40.707031C40.512031 40.902031 40.256 41 40 41C39.744 41 39.487969 40.902031 39.292969 40.707031L35 36.414062L30.707031 40.707031C30.512031 40.902031 30.256 41 30 41C29.744 41 29.487969 40.902031 29.292969 40.707031C28.901969 40.316031 28.901969 39.683969 29.292969 39.292969L33.585938 35L29.292969 30.707031C28.901969 30.316031 28.901969 29.683969 29.292969 29.292969C29.488469 29.097469 29.74425 29 30 29 z" fill="#FFFFFF" />
</svg>