<svg xmlns="http://www.w3.org/2000/svg" viewBox="0 0 48 48">
  <path d="M7.5 7 A 1.50015 1.50015 0 1 0 7.5 10L26.5 10 A 1.50015 1.50015 0 1 0 26.5 7L7.5 7 z M 33.476562 14.478516 A 1.50015 1.50015 0 0 0 32 16L32 37.878906L27.560547 33.439453 A 1.50015 1.50015 0 1 0 25.439453 35.560547L32.439453 42.560547 A 1.50015 1.50015 0 0 0 34.560547 42.560547L41.560547 35.560547 A 1.50015 1.50015 0 1 0 39.439453 33.439453L35 37.878906L35 16 A 1.50015 1.50015 0 0 0 33.476562 14.478516 z M 7.5 15 A 1.50015 1.50015 0 1 0 7.5 18L22.5 18 A 1.50015 1.50015 0 1 0 22.5 15L7.5 15 z M 7.5 23 A 1.50015 1.50015 0 1 0 7.5 26L18.5 26 A 1.50015 1.50015 0 1 0 18.5 23L7.5 23 z M 7.5 31 A 1.50015 1.50015 0 1 0 7.5 34L14.5 34 A 1.50015 1.50015 0 1 0 14.5 31L7.5 31 z M 7.5 39 A 1.50015 1.50015 0 1 0 7.5 42L10.5 42 A 1.50015 1.50015 0 1 0 10.5 39L7.5 39 z" fill="#FFFFFF" />
</svg>