<svg xmlns="http://www.w3.org/2000/svg" viewBox="0 0 48 48">
  <path d="M36 5.0097656C34.205301 5.0097656 32.410791 5.6901377 31.050781 7.0507812L27.230469 10.871094 A 1.50015 1.50015 0 0 0 26.876953 11.222656L8.9160156 29.183594C8.4960384 29.603571 8.1884588 30.12585 8.0253906 30.699219L5.0585938 41.087891 A 1.50015 1.50015 0 0 0 6.9121094 42.941406L17.302734 39.974609 A 1.50015 1.50015 0 0 0 17.304688 39.972656C17.874212 39.808939 18.39521 39.50518 18.816406 39.083984L36.740234 21.158203 A 1.50015 1.50015 0 0 0 37.162109 20.736328L40.949219 16.949219C43.670344 14.228094 43.670344 9.7719064 40.949219 7.0507812C39.589209 5.6901377 37.794699 5.0097656 36 5.0097656 z M 36 7.9921875C37.020801 7.9921875 38.040182 8.3855186 38.826172 9.171875 A 1.50015 1.50015 0 0 0 38.828125 9.171875C40.403 10.74675 40.403 13.25325 38.828125 14.828125L35.888672 17.767578L30.232422 12.111328L33.171875 9.171875C33.957865 8.3855186 34.979199 7.9921875 36 7.9921875 z M 28.111328 14.232422L33.767578 19.888672L16.693359 36.962891C16.634729 37.021121 16.560472 37.065723 16.476562 37.089844L15.492188 37.371094L10.628906 32.507812L10.910156 31.521484 A 1.50015 1.50015 0 0 0 10.910156 31.519531C10.933086 31.438901 10.975086 31.366709 11.037109 31.304688L28.111328 14.232422 z M 9.6855469 35.806641L12.193359 38.314453L8.6835938 39.316406L9.6855469 35.806641 z" fill="#FFFFFF" />
</svg>