<svg xmlns="http://www.w3.org/2000/svg" viewBox="0 0 48 48">
  <path d="M10.5 8C6.9280619 8 4 10.928062 4 14.5L4 33.5C4 37.071938 6.9280619 40 10.5 40L37.5 40C41.071938 40 44 37.071938 44 33.5L44 14.5C44 10.928062 41.071938 8 37.5 8L10.5 8 z M 10.5 11L37.5 11C39.450062 11 41 12.549938 41 14.5L41 15.605469L24 24.794922L7 15.605469L7 14.5C7 12.549938 8.5499381 11 10.5 11 z M 7 19.015625L23.287109 27.820312 A 1.50015 1.50015 0 0 0 24.712891 27.820312L41 19.015625L41 33.5C41 35.450062 39.450062 37 37.5 37L10.5 37C8.5499381 37 7 35.450062 7 33.5L7 19.015625 z" fill="#756E9F" />
</svg>