<svg xmlns="http://www.w3.org/2000/svg" viewBox="0 0 80 80">
  <path d="M6 14 A 1 1 0 0 0 5 15 A 1 1 0 0 0 6 16 A 1 1 0 0 0 7 15 A 1 1 0 0 0 6 14 z M 10 14 A 1 1 0 0 0 9 15 A 1 1 0 0 0 10 16 A 1 1 0 0 0 11 15 A 1 1 0 0 0 10 14 z M 14 14 A 1 1 0 0 0 13 15 A 1 1 0 0 0 14 16 A 1 1 0 0 0 15 15 A 1 1 0 0 0 14 14 z M 18 14 A 1 1 0 0 0 17 15 A 1 1 0 0 0 18 16 A 1 1 0 0 0 19 15 A 1 1 0 0 0 18 14 z M 22 14 A 1 1 0 0 0 21 15 A 1 1 0 0 0 22 16 A 1 1 0 0 0 23 15 A 1 1 0 0 0 22 14 z M 26 14 A 1 1 0 0 0 25 15 A 1 1 0 0 0 26 16 A 1 1 0 0 0 27 15 A 1 1 0 0 0 26 14 z M 30 14 A 1 1 0 0 0 29 15 A 1 1 0 0 0 30 16 A 1 1 0 0 0 31 15 A 1 1 0 0 0 30 14 z M 34 14 A 1 1 0 0 0 33 15 A 1 1 0 0 0 34 16 A 1 1 0 0 0 35 15 A 1 1 0 0 0 34 14 z M 38 14 A 1 1 0 0 0 37 15 A 1 1 0 0 0 38 16 A 1 1 0 0 0 39 15 A 1 1 0 0 0 38 14 z M 42 14 A 1 1 0 0 0 41 15 A 1 1 0 0 0 42 16 A 1 1 0 0 0 43 15 A 1 1 0 0 0 42 14 z M 46 14 A 1 1 0 0 0 45 15 A 1 1 0 0 0 46 16 A 1 1 0 0 0 47 15 A 1 1 0 0 0 46 14 z M 50 14 A 1 1 0 0 0 49 15 A 1 1 0 0 0 50 16 A 1 1 0 0 0 51 15 A 1 1 0 0 0 50 14 z M 54 14 A 1 1 0 0 0 53 15 A 1 1 0 0 0 54 16 A 1 1 0 0 0 55 15 A 1 1 0 0 0 54 14 z M 58 14 A 1 1 0 0 0 57 15 A 1 1 0 0 0 58 16 A 1 1 0 0 0 59 15 A 1 1 0 0 0 58 14 z M 62 14 A 1 1 0 0 0 61 15 A 1 1 0 0 0 62 16 A 1 1 0 0 0 63 15 A 1 1 0 0 0 62 14 z M 66 14 A 1 1 0 0 0 65 15 A 1 1 0 0 0 66 16 A 1 1 0 0 0 67 15 A 1 1 0 0 0 66 14 z M 70 14 A 1 1 0 0 0 69 15 A 1 1 0 0 0 70 16 A 1 1 0 0 0 71 15 A 1 1 0 0 0 70 14 z M 74 14 A 1 1 0 0 0 73 15 A 1 1 0 0 0 74 16 A 1 1 0 0 0 75 15 A 1 1 0 0 0 74 14 z M 6 18 A 1 1 0 0 0 5 19 A 1 1 0 0 0 6 20 A 1 1 0 0 0 7 19 A 1 1 0 0 0 6 18 z M 74 18 A 1 1 0 0 0 73 19 A 1 1 0 0 0 74 20 A 1 1 0 0 0 75 19 A 1 1 0 0 0 74 18 z M 6 22 A 1 1 0 0 0 5 23 A 1 1 0 0 0 6 24 A 1 1 0 0 0 7 23 A 1 1 0 0 0 6 22 z M 74 22 A 1 1 0 0 0 73 23 A 1 1 0 0 0 74 24 A 1 1 0 0 0 75 23 A 1 1 0 0 0 74 22 z M 52 24L52 26L61.585938 26L49.585938 38L5 38L5 68L51 68L51 67L51 39.414062L63 27.414062L63 37L65 37L65 24L52 24 z M 6 26 A 1 1 0 0 0 5 27 A 1 1 0 0 0 6 28 A 1 1 0 0 0 7 27 A 1 1 0 0 0 6 26 z M 74 26 A 1 1 0 0 0 73 27 A 1 1 0 0 0 74 28 A 1 1 0 0 0 75 27 A 1 1 0 0 0 74 26 z M 6 30 A 1 1 0 0 0 5 31 A 1 1 0 0 0 6 32 A 1 1 0 0 0 7 31 A 1 1 0 0 0 6 30 z M 74 30 A 1 1 0 0 0 73 31 A 1 1 0 0 0 74 32 A 1 1 0 0 0 75 31 A 1 1 0 0 0 74 30 z M 6 34 A 1 1 0 0 0 5 35 A 1 1 0 0 0 6 36 A 1 1 0 0 0 7 35 A 1 1 0 0 0 6 34 z M 74 34 A 1 1 0 0 0 73 35 A 1 1 0 0 0 74 36 A 1 1 0 0 0 75 35 A 1 1 0 0 0 74 34 z M 74 38 A 1 1 0 0 0 73 39 A 1 1 0 0 0 74 40 A 1 1 0 0 0 75 39 A 1 1 0 0 0 74 38 z M 7 40L49 40L49 66L7 66L7 40 z M 74 42 A 1 1 0 0 0 73 43 A 1 1 0 0 0 74 44 A 1 1 0 0 0 75 43 A 1 1 0 0 0 74 42 z M 74 46 A 1 1 0 0 0 73 47 A 1 1 0 0 0 74 48 A 1 1 0 0 0 75 47 A 1 1 0 0 0 74 46 z M 74 50 A 1 1 0 0 0 73 51 A 1 1 0 0 0 74 52 A 1 1 0 0 0 75 51 A 1 1 0 0 0 74 50 z M 74 54 A 1 1 0 0 0 73 55 A 1 1 0 0 0 74 56 A 1 1 0 0 0 75 55 A 1 1 0 0 0 74 54 z M 74 58 A 1 1 0 0 0 73 59 A 1 1 0 0 0 74 60 A 1 1 0 0 0 75 59 A 1 1 0 0 0 74 58 z M 74 62 A 1 1 0 0 0 73 63 A 1 1 0 0 0 74 64 A 1 1 0 0 0 75 63 A 1 1 0 0 0 74 62 z M 54 66 A 1 1 0 0 0 53 67 A 1 1 0 0 0 54 68 A 1 1 0 0 0 55 67 A 1 1 0 0 0 54 66 z M 58 66 A 1 1 0 0 0 57 67 A 1 1 0 0 0 58 68 A 1 1 0 0 0 59 67 A 1 1 0 0 0 58 66 z M 62 66 A 1 1 0 0 0 61 67 A 1 1 0 0 0 62 68 A 1 1 0 0 0 63 67 A 1 1 0 0 0 62 66 z M 66 66 A 1 1 0 0 0 65 67 A 1 1 0 0 0 66 68 A 1 1 0 0 0 67 67 A 1 1 0 0 0 66 66 z M 70 66 A 1 1 0 0 0 69 67 A 1 1 0 0 0 70 68 A 1 1 0 0 0 71 67 A 1 1 0 0 0 70 66 z M 74 66 A 1 1 0 0 0 73 67 A 1 1 0 0 0 74 68 A 1 1 0 0 0 75 67 A 1 1 0 0 0 74 66 z" fill="#FFFFFF" />
</svg>