<svg xmlns="http://www.w3.org/2000/svg" viewBox="0 0 48 48"><path d="M8.5 6C7.1364058 6 6 7.1364058 6 8.5L6 11.589844C6 13.886494 7.0554772 16.058837 8.859375 17.480469 A 1.50015 1.50015 0 0 0 8.8652344 17.484375L19 25.392578L19 40.5 A 1.50015 1.50015 0 0 0 21.371094 41.720703L28.371094 36.720703 A 1.50015 1.50015 0 0 0 29 35.5L29 25.392578L39.134766 17.484375 A 1.50015 1.50015 0 0 0 39.140625 17.480469C40.944482 16.058831 42 13.886494 42 11.589844L42 8.5C42 7.1364058 40.863594 6 39.5 6L8.5 6 z M 9 9L39 9L39 11.589844C39 12.969193 38.369258 14.268678 37.285156 15.123047L26.578125 23.476562 A 1.50015 1.50015 0 0 0 26 24.660156L26 34.728516L22 37.585938L22 24.660156 A 1.50015 1.50015 0 0 0 21.421875 23.476562L10.714844 15.123047C9.6307412 14.268678 9 12.969193 9 11.589844L9 9 z"/></svg>