<svg xmlns="http://www.w3.org/2000/svg" viewBox="0 0 48 48"><path d="M24 4C12.972066 4 4 12.972074 4 24C4 35.027926 12.972066 44 24 44C35.027934 44 44 35.027926 44 24C44 12.972074 35.027934 4 24 4 z M 24 7C24.732512 7 25.47638 7.3049138 26.292969 8.0566406C27.109557 8.8083674 27.937809 10.00251 28.646484 11.544922C29.21649 12.785523 29.636897 14.376262 30.021484 16L17.978516 16C18.363103 14.376262 18.78351 12.785523 19.353516 11.544922C20.062191 10.00251 20.890443 8.8083674 21.707031 8.0566406C22.52362 7.3049138 23.267488 7 24 7 z M 17.777344 8.1875C17.36377 8.8373605 16.976184 9.5328778 16.626953 10.292969C15.865942 11.949289 15.294931 13.909818 14.851562 16L8.9960938 16C10.887432 12.451925 14.000349 9.6704643 17.777344 8.1875 z M 30.222656 8.1875C33.999651 9.6704643 37.112568 12.451925 39.003906 16L33.148438 16C32.705069 13.909818 32.134058 11.949289 31.373047 10.292969C31.023816 9.5328778 30.63623 8.8373605 30.222656 8.1875 z M 7.7480469 19L14.460938 19C14.25543 20.632226 14 22.231849 14 24C14 25.768151 14.255429 27.367774 14.460938 29L7.7480469 29C7.2643289 27.419675 7 25.741249 7 24C7 22.258751 7.2643289 20.580325 7.7480469 19 z M 17.466797 19L30.533203 19C30.75622 20.613412 31 22.220624 31 24C31 25.779376 30.75622 27.386588 30.533203 29L17.466797 29C17.24378 27.386588 17 25.779376 17 24C17 22.220624 17.24378 20.613412 17.466797 19 z M 33.539062 19L40.251953 19C40.735671 20.580325 41 22.258751 41 24C41 25.741249 40.735671 27.419675 40.251953 29L33.539062 29C33.744571 27.367774 34 25.768151 34 24C34 22.231849 33.744571 20.632226 33.539062 19 z M 8.9960938 32L14.851562 32C15.294932 34.090182 15.865942 36.050711 16.626953 37.707031C16.976184 38.467122 17.36377 39.16264 17.777344 39.8125C14.000349 38.329536 10.887432 35.548075 8.9960938 32 z M 17.978516 32L30.021484 32C29.636897 33.623738 29.21649 35.214477 28.646484 36.455078C27.937809 37.99749 27.109557 39.191633 26.292969 39.943359C25.47638 40.695086 24.732512 41 24 41C23.267488 41 22.52362 40.695086 21.707031 39.943359C20.890443 39.191633 20.062191 37.99749 19.353516 36.455078C18.78351 35.214477 18.363103 33.623738 17.978516 32 z M 33.148438 32L39.003906 32C37.112568 35.548075 33.999651 38.329536 30.222656 39.8125C30.63623 39.16264 31.023816 38.467122 31.373047 37.707031C32.134058 36.050711 32.705069 34.090182 33.148438 32 z"/></svg>