<svg xmlns="http://www.w3.org/2000/svg" xmlns:xlink="http://www.w3.org/1999/xlink" version="1.1" id="_x36_" xml:space="preserve" viewBox="0 0 234.57 512">
<g>
	<g>
		<g>
			<path style="fill:#605E51;" d="M234.573,462.789v39.779c0,5.194-52.492,9.432-117.286,9.432     c-46.546,0-86.666-2.188-105.667-5.331c0,0,0,0-0.068,0C4.169,505.37,0,504.004,0,502.568v-39.779     c0-2.256,9.979-4.375,26.588-6.016c21.462-2.118,54.132-3.486,90.699-3.486c36.566,0,69.237,1.367,90.698,3.486     C224.594,458.414,234.573,460.533,234.573,462.789z"/>
			<path style="fill:#4F4F3C;" d="M234.573,462.789c0,5.195-52.492,9.431-117.286,9.431C52.492,472.221,0,467.984,0,462.789     c0-2.256,9.979-4.375,26.588-6.016c21.462-2.118,54.132-3.486,90.699-3.486c36.566,0,69.237,1.367,90.698,3.486     C224.594,458.414,234.573,460.533,234.573,462.789z"/>
		</g>
		<g>
			<path style="fill:#60604C;" d="M207.985,432.374v24.537c0,5.194-40.599,9.433-90.698,9.433c-50.1,0-90.699-4.238-90.699-9.433     v-24.537c0-3.417,17.156-6.425,42.923-8.066c7.792-0.478,16.404-0.888,25.563-1.161h0.82c6.835-0.205,14.011-0.274,21.393-0.274     c7.381,0,14.558,0.068,21.393,0.274h0.821c9.158,0.274,17.77,0.683,25.562,1.161     C190.829,425.948,207.985,428.956,207.985,432.374z"/>
			<path style="fill:#727257;" d="M207.985,432.374c0,5.195-40.599,9.432-90.698,9.432c-50.1,0-90.699-4.238-90.699-9.432     c0-3.417,17.156-6.425,42.923-8.066c7.792-0.478,16.404-0.888,25.563-1.161h0.82c6.835-0.205,14.011-0.274,21.393-0.274     c7.381,0,14.558,0.068,21.393,0.274h0.821c9.158,0.274,17.77,0.683,25.562,1.161     C190.829,425.948,207.985,428.956,207.985,432.374z"/>
		</g>
		<path style="opacity:0.9;fill:#FFFFFF;" d="M215.298,338.736c0,36.772-20.299,68.758-50.236,85.572    c-14.148,7.861-30.415,12.371-47.776,12.371c-17.361,0-33.628-4.51-47.776-12.371c-29.937-16.814-50.236-48.8-50.236-85.572    c0-45.726,31.304-84.138,73.612-95.005V222.27c-42.308-10.799-73.612-49.212-73.612-94.936c0-19.001,5.399-36.703,14.763-51.672    c4.238-6.902,9.296-13.191,15.105-18.727c6.766-6.63,14.422-12.165,22.897-16.608c13.533-7.04,28.912-11.004,45.247-11.004    c16.335,0,31.714,3.964,45.247,11.004c8.475,4.443,16.13,9.979,22.897,16.608c5.809,5.537,10.868,11.825,15.105,18.727    c9.364,14.969,14.763,32.671,14.763,51.672c0,45.725-31.304,84.138-73.612,94.936v21.462    C183.994,254.599,215.298,293.011,215.298,338.736z"/>
		<path style="fill:#C0736B;" d="M191.685,164.525c-0.165,0.759-0.499,1.508-0.991,2.24l-0.903,1.143l-0.653,0.824l-28.585,36.119    c-12.326,8.408-27.223,13.319-43.266,13.319c-16.043,0-30.938-4.912-43.264-13.317L45.43,168.728l-0.648-0.82l-0.903-1.143    l-0.991-2.24c0.129-0.434,0.355-0.86,0.68-1.283c5.296-6.94,36.286-12.262,73.719-12.262c37.431,0,68.417,5.323,73.717,12.26    C191.329,163.663,191.557,164.092,191.685,164.525z"/>
		<path style="fill:#C0736B;" d="M191.81,163.401c0,0.377-0.041,0.752-0.124,1.125c-0.165,0.759-0.499,1.508-0.992,2.24    c-0.257,0.386-0.558,0.766-0.903,1.143c-7.8,8.552-37.302,14.914-72.504,14.914s-64.704-6.362-72.504-14.914    c-0.346-0.377-0.646-0.757-0.903-1.143c-0.492-0.732-0.826-1.482-0.991-2.24c-0.083-0.373-0.124-0.747-0.124-1.125    c0-10.727,33.366-19.421,74.523-19.421S191.81,152.674,191.81,163.401z"/>
		<path style="opacity:0.1;fill:#040000;" d="M191.81,163.401c0,0.377-0.041,0.752-0.124,1.125c-0.165,0.759-0.499,1.508-0.992,2.24    c-0.257,0.386-0.558,0.766-0.903,1.143c-7.8,8.552-37.302,14.914-72.504,14.914s-64.704-6.362-72.504-14.914    c-0.346-0.377-0.646-0.757-0.903-1.143c-0.492-0.732-0.826-1.482-0.991-2.24c-0.083-0.373-0.124-0.747-0.124-1.125    c0-10.727,33.366-19.421,74.523-19.421S191.81,152.674,191.81,163.401z"/>
		<rect x="112.77" y="200.948" style="fill:#C0736B;" width="9.033" height="154.466"/>
		<g>
			<path style="fill:#60604C;" d="M207.985,32.124v39.778c0,1.368-2.666,2.666-7.45,3.759c-13.943,3.417-45.93,5.742-83.249,5.742     c-37.318,0-69.306-2.325-83.249-5.742c-4.784-1.093-7.45-2.391-7.45-3.759V32.124c0-5.195,40.599-9.433,90.699-9.433     C167.386,22.691,207.985,26.93,207.985,32.124z"/>
			<ellipse style="fill:#697257;" cx="117.287" cy="32.125" rx="90.732" ry="9.466"/>
		</g>
		<path style="fill:#C0736B;" d="M174.957,380.168l-28.752-31.073c-12.852-13.89-44.983-13.89-57.835,0l-28.752,31.073    c-4.075,4.404-4.898,16.391-4.898,17.833c0,14.782,28.013,26.765,62.568,26.765c34.555,0,62.568-11.983,62.568-26.765    C179.855,396.558,179.032,384.572,174.957,380.168z"/>
		<path style="opacity:0.07;fill:#040000;" d="M179.854,398.154c0,14.78-28.012,26.765-62.568,26.765    c-34.556,0-62.568-11.985-62.568-26.765c0-0.908,0.325-5.989,1.583-10.729c6.375,11.888,31.259,20.756,60.985,20.756    c29.726,0,54.61-8.868,60.985-20.756C179.529,392.165,179.854,397.246,179.854,398.154z"/>
		<g>
			<path style="fill:#4F4F3C;" d="M234.573,9.432v39.779c0,2.324-9.979,4.374-26.588,6.014c-6.561,0.684-14.08,1.231-22.555,1.709     c-19.206,1.095-42.718,1.777-68.143,1.777c-25.426,0-48.938-0.682-68.144-1.777c-8.475-0.478-15.994-1.025-22.555-1.709     C9.979,53.585,0,51.535,0,49.211V9.432C0,4.238,52.492,0,117.286,0c45.589,0,85.094,2.119,104.505,5.126     C229.993,6.425,234.573,7.86,234.573,9.432z"/>
			<path style="fill:#676352;" d="M234.573,9.432c0,1.025-1.914,1.982-5.536,2.939c-15.105,3.827-59.395,6.561-111.75,6.561     C52.492,18.933,0,14.695,0,9.432C0,4.238,52.492,0,117.286,0c45.589,0,85.094,2.119,104.505,5.126     C229.993,6.425,234.573,7.86,234.573,9.432z"/>
		</g>
	</g>
	<path style="opacity:0.07;fill:#040000;" d="M207.985,71.903V55.225c16.609-1.64,26.588-3.69,26.588-6.014V9.432   c0-1.572-4.579-3.007-12.781-4.306C202.38,2.119,162.875,0,117.286,0v512c64.794,0,117.286-4.238,117.286-9.432v-39.779   c0-2.256-9.979-4.375-26.588-6.016v-24.4c0-3.417-17.156-6.425-42.923-8.066c29.937-16.814,50.236-48.8,50.236-85.572   c0-45.726-31.304-84.138-73.612-95.005V222.27c42.308-10.799,73.612-49.212,73.612-94.936c0-19.001-5.399-36.703-14.763-51.672   C205.319,74.569,207.985,73.27,207.985,71.903z"/>
</g>
</svg>