<svg xmlns="http://www.w3.org/2000/svg" viewBox="0 0 48 48">
  <path d="M24 5C22.458334 5 21.112148 5.6321334 20.253906 6.5976562C19.395664 7.5631791 19 8.7916668 19 10C19 11.208333 19.395664 12.436821 20.253906 13.402344C21.112148 14.367867 22.458334 15 24 15C25.541666 15 26.887852 14.367867 27.746094 13.402344C28.604336 12.436821 29 11.208333 29 10C29 8.7916668 28.604336 7.5631792 27.746094 6.5976562C26.887852 5.6321334 25.541666 5 24 5 z M 24 8C24.791666 8 25.195482 8.2428665 25.503906 8.5898438C25.81233 8.9368209 26 9.4583332 26 10C26 10.541667 25.81233 11.063179 25.503906 11.410156C25.195482 11.757133 24.791666 12 24 12C23.208334 12 22.804518 11.757133 22.496094 11.410156C22.18767 11.063179 22 10.541667 22 10C22 9.4583332 22.18767 8.9368209 22.496094 8.5898438C22.804518 8.2428665 23.208334 8 24 8 z M 20.476562 16.978516 A 1.50015 1.50015 0 0 0 20.259766 17L16 17 A 1.50015 1.50015 0 1 0 16 20L19 20L19 40L16 40 A 1.50015 1.50015 0 1 0 16 43L20.253906 43 A 1.50015 1.50015 0 0 0 20.740234 43L27.253906 43 A 1.50015 1.50015 0 0 0 27.740234 43L32.5 43 A 1.50015 1.50015 0 1 0 32.5 40L29 40L29 22.5C29 19.480226 26.519774 17 23.5 17L20.746094 17 A 1.50015 1.50015 0 0 0 20.476562 16.978516 z M 22 20L23.5 20C24.898226 20 26 21.101774 26 22.5L26 40L22 40L22 20 z" fill="#FFFFFF" />
</svg>