<svg xmlns="http://www.w3.org/2000/svg" viewBox="0 0 48 48"><path d="M23.976562 3.9785156 A 1.50015 1.50015 0 0 0 22.802734 4.5761719L18.939453 8.4394531 A 1.50015 1.50015 0 1 0 21.060547 10.560547L22.5 9.1210938L22.5 14.5 A 1.50015 1.50015 0 1 0 25.5 14.5L25.5 9.1210938L26.939453 10.560547 A 1.50015 1.50015 0 1 0 29.060547 8.4394531L25.189453 4.5683594 A 1.50015 1.50015 0 0 0 23.976562 3.9785156 z M 8.5 18C6.5850452 18 5 19.585045 5 21.5L5 38.5C5 40.414955 6.5850452 42 8.5 42L39.5 42C41.414955 42 43 40.414955 43 38.5L43 21.5C43 19.585045 41.414955 18 39.5 18L8.5 18 z M 11 21L37 21C37 22.66 38.34 24 40 24L40 36C38.34 36 37 37.34 37 39L11 39C11 37.34 9.66 36 8 36L8 24C9.66 24 11 22.66 11 21 z M 24 23C22.041667 23 20.395258 23.984106 19.412109 25.335938C18.428961 26.687767 18 28.352273 18 30C18 31.647727 18.428961 33.312233 19.412109 34.664062C20.395258 36.015893 22.041667 37 24 37C25.958333 37 27.604742 36.015893 28.587891 34.664062C29.571039 33.312233 30 31.647727 30 30C30 28.352273 29.571039 26.687768 28.587891 25.335938C27.604742 23.984107 25.958333 23 24 23 z M 24 26C25.041666 26 25.645259 26.390894 26.162109 27.101562C26.67896 27.812233 27 28.897727 27 30C27 31.102273 26.67896 32.187768 26.162109 32.898438C25.645259 33.609107 25.041666 34 24 34C22.958334 34 22.354741 33.609107 21.837891 32.898438C21.32104 32.187767 21 31.102273 21 30C21 28.897727 21.32104 27.812232 21.837891 27.101562C22.354741 26.390893 22.958334 26 24 26 z M 12 28 A 2 2 0 0 0 12 32 A 2 2 0 0 0 12 28 z M 36 28 A 2 2 0 0 0 36 32 A 2 2 0 0 0 36 28 z"/></svg>