<svg xmlns="http://www.w3.org/2000/svg" viewBox="0 0 48 48"><path d="M24 7C16.51 7 10.330078 12.71 9.5800781 20L9 20C4.04 20 0 24.04 0 29C0 33.96 4.04 38 9 38L15.439453 38C14.769453 37.14 14.410391 36.1 14.400391 35L9 35C5.69 35 3 32.31 3 29C3 25.69 5.69 23 9 23L11 23C11.83 23 12.5 22.33 12.5 21.5C12.5 15.16 17.66 10 24 10C30.34 10 35.5 15.16 35.5 21.5C35.5 22.33 36.17 23 37 23L39 23C42.31 23 45 25.69 45 29C45 32.31 42.31 35 39 35L33.599609 35C33.589609 36.1 33.230547 37.14 32.560547 38L39 38C43.96 38 48 33.96 48 29C48 24.04 43.96 20 39 20L38.419922 20C37.669922 12.71 31.49 7 24 7 z M 24 24.082031C20.284937 24.082031 16.569181 25.493319 13.746094 28.316406 A 2.000477 2.000477 0 1 0 16.576172 31.144531C20.693998 27.026705 27.306002 27.026705 31.423828 31.144531 A 2.000477 2.000477 0 1 0 34.253906 28.316406C31.430819 25.493319 27.715063 24.082031 24 24.082031 z M 24 31.060547C21.820518 31.060547 19.641484 31.885859 17.990234 33.537109 A 2.0004773 2.0004773 0 0 0 20.818359 36.367188C22.591859 34.593688 25.408141 34.593688 27.181641 36.367188 A 2.0004773 2.0004773 0 1 0 30.009766 33.537109C28.358516 31.885859 26.179482 31.060547 24 31.060547 z M 24 38.5 A 2.5 2.5 0 0 0 24 43.5 A 2.5 2.5 0 0 0 24 38.5 z"/></svg>