<svg xmlns="http://www.w3.org/2000/svg" viewBox="0 0 48 48"><path d="M12.5 6C8.9280619 6 6 8.9280619 6 12.5L6 35.5C6 39.071938 8.9280619 42 12.5 42L35.5 42C39.071938 42 42 39.071938 42 35.5L42 12.5C42 8.9280619 39.071938 6 35.5 6L12.5 6 z M 12.5 9L35.5 9C37.450062 9 39 10.549938 39 12.5L39 14L9 14L9 12.5C9 10.549938 10.549938 9 12.5 9 z M 9 17L39 17L39 35.5C39 37.450062 37.450062 39 35.5 39L12.5 39C10.549938 39 9 37.450062 9 35.5L9 17 z M 23.375 21.005859C23.257547 21.01575 23.139641 21.037922 23.025391 21.076172L20.025391 22.076172C19.239391 22.338172 18.814172 23.188609 19.076172 23.974609C19.338172 24.760609 20.190609 25.188828 20.974609 24.923828L22 24.580078L22 33.5C22 34.329 22.671 35 23.5 35C24.329 35 25 34.329 25 33.5L25 22.5C25 22.018 24.767953 21.565203 24.376953 21.283203C24.082953 21.071703 23.727359 20.976187 23.375 21.005859 z M 28.177734 23.001953C28.052516 23.009125 27.928391 23.036031 27.806641 23.082031C27.321641 23.266031 27 23.731 27 24.25L27 33.75C27 34.44 27.56 35 28.25 35C28.94 35 29.5 34.44 29.5 33.75L29.5 27.59375L31.123047 29.580078C31.596047 30.113078 32.518188 30.113078 32.992188 29.580078L34.5 27.59375L34.5 33.75C34.5 34.44 35.06 35 35.75 35C36.44 35 37 34.44 37 33.75L37 24.25C37 23.731 36.678359 23.266031 36.193359 23.082031C35.708359 22.899031 35.161406 23.032922 34.816406 23.419922L32.058594 26.869141L29.183594 23.419922C28.926344 23.129672 28.553391 22.980437 28.177734 23.001953 z M 14.976562 24.478516 A 1.50015 1.50015 0 0 0 13.5 26L13.5 27L12.5 27 A 1.50015 1.50015 0 1 0 12.5 30L13.5 30L13.5 31 A 1.50015 1.50015 0 1 0 16.5 31L16.5 30L17.5 30 A 1.50015 1.50015 0 1 0 17.5 27L16.5 27L16.5 26 A 1.50015 1.50015 0 0 0 14.976562 24.478516 z"/></svg>