<svg xmlns="http://www.w3.org/2000/svg" viewBox="0 0 48 48">
  <path d="M20.5 6C12.509634 6 6 12.50964 6 20.5C6 28.49036 12.509634 35 20.5 35C23.956359 35 27.133709 33.779044 29.628906 31.75L39.439453 41.560547 A 1.50015 1.50015 0 1 0 41.560547 39.439453L31.75 29.628906C33.779044 27.133709 35 23.956357 35 20.5C35 12.50964 28.490366 6 20.5 6 z M 20.5 9C26.869047 9 32 14.130957 32 20.5C32 23.602612 30.776198 26.405717 28.791016 28.470703 A 1.50015 1.50015 0 0 0 28.470703 28.791016C26.405717 30.776199 23.602614 32 20.5 32C14.130953 32 9 26.869043 9 20.5C9 14.130957 14.130953 9 20.5 9 z M 16.5 16 A 1.5 1.5 0 0 0 16.5 19 A 1.5 1.5 0 0 0 16.5 16 z M 24.5 16 A 1.5 1.5 0 0 0 24.5 19 A 1.5 1.5 0 0 0 24.5 16 z M 20.5 23C18.985892 23 17.801376 23.288764 16.980469 23.595703C16.159561 23.902642 15.607422 24.294922 15.607422 24.294922 A 1.50015 1.50015 0 1 0 17.392578 26.705078C17.392578 26.705078 17.514908 26.597358 18.03125 26.404297C18.547592 26.211236 19.363108 26 20.5 26C21.636892 26 22.452408 26.211236 22.96875 26.404297C23.485092 26.597358 23.607422 26.705078 23.607422 26.705078 A 1.50015 1.50015 0 1 0 25.392578 24.294922C25.392578 24.294922 24.840439 23.902642 24.019531 23.595703C23.198624 23.288764 22.014108 23 20.5 23 z" fill="#FFFFFF" />
</svg>