<svg xmlns="http://www.w3.org/2000/svg" viewBox="0 0 48 48">
  <path d="M10.576172 5C10.169172 5 9.8097812 5.2575781 9.6757812 5.6425781L8.7324219 8.3847656L5.6054688 8.3847656C5.1974688 8.3847656 4.834125 8.6462031 4.703125 9.0332031C4.573125 9.4202031 4.7042969 9.8487031 5.0292969 10.095703L7.5644531 12.017578L6.7050781 14.763672C6.5820781 15.157672 6.7274531 15.586219 7.0644531 15.824219C7.4014531 16.063219 7.8555469 16.058547 8.1855469 15.810547L10.576172 14.019531L12.966797 15.810547C13.135797 15.936547 13.336109 16 13.537109 16C13.730109 16 13.922891 15.941219 14.087891 15.824219C14.424891 15.586219 14.570266 15.157672 14.447266 14.763672L13.589844 12.017578L16.123047 10.095703C16.449047 9.8487031 16.580219 9.41925 16.449219 9.03125C16.319219 8.64425 15.955875 8.3847656 15.546875 8.3847656L12.419922 8.3847656L11.476562 5.6425781C11.344563 5.2585781 10.983172 5 10.576172 5 z M 20.5 9 A 1.50015 1.50015 0 1 0 20.5 12L41.5 12 A 1.50015 1.50015 0 1 0 41.5 9L20.5 9 z M 10.576172 18.501953C10.170172 18.501953 9.8077812 18.758578 9.6757812 19.142578L8.734375 21.884766L5.6054688 21.884766C5.1974687 21.884766 4.834125 22.146203 4.703125 22.533203C4.573125 22.920203 4.70525 23.348703 5.03125 23.595703L7.5644531 25.517578L6.7070312 28.263672C6.5840312 28.657672 6.7294063 29.086219 7.0664062 29.324219C7.4034062 29.563219 7.8555469 29.558547 8.1855469 29.310547L10.576172 27.519531L12.96875 29.310547C13.13775 29.436547 13.338062 29.5 13.539062 29.5C13.731063 29.5 13.922891 29.441219 14.087891 29.324219C14.424891 29.086219 14.570266 28.657672 14.447266 28.263672L13.589844 25.517578L16.123047 23.595703C16.449047 23.348703 16.579266 22.920203 16.447266 22.533203C16.317266 22.146203 15.955875 21.884766 15.546875 21.884766L12.417969 21.884766L11.476562 19.142578C11.344563 18.758578 10.983172 18.501953 10.576172 18.501953 z M 20.5 22.5 A 1.50015 1.50015 0 1 0 20.5 25.5L41.5 25.5 A 1.50015 1.50015 0 1 0 41.5 22.5L20.5 22.5 z M 10.576172 32C10.169172 32 9.8097812 32.257578 9.6757812 32.642578L8.7324219 35.384766L5.6054688 35.384766C5.1974688 35.384766 4.834125 35.646203 4.703125 36.033203C4.573125 36.420203 4.7032969 36.848703 5.0292969 37.095703L7.5644531 39.017578L6.7050781 41.763672C6.5820781 42.157672 6.7274531 42.586219 7.0644531 42.824219C7.4014531 43.063219 7.8555469 43.058547 8.1855469 42.810547L10.576172 41.019531L12.966797 42.810547C13.135797 42.936547 13.336109 43 13.537109 43C13.730109 43 13.922891 42.941219 14.087891 42.824219C14.424891 42.586219 14.570266 42.157672 14.447266 41.763672L13.589844 39.017578L16.123047 37.095703C16.449047 36.848703 16.580219 36.41925 16.449219 36.03125C16.319219 35.64425 15.955875 35.384766 15.546875 35.384766L12.419922 35.384766L11.476562 32.642578C11.344563 32.258578 10.983172 32 10.576172 32 z M 20.5 36 A 1.50015 1.50015 0 1 0 20.5 39L41.5 39 A 1.50015 1.50015 0 1 0 41.5 36L20.5 36 z" fill="#FFFFFF" />
</svg>