<svg xmlns="http://www.w3.org/2000/svg" viewBox="0 0 48 48"><path d="M27.5 3 A 1.50015 1.50015 0 0 0 26 4.5L26 20.5 A 1.50015 1.50015 0 0 0 27.5 22L43.5 22 A 1.50015 1.50015 0 0 0 45 20.5C45 10.852431 37.147569 3 27.5 3 z M 29 6.1503906C35.807319 6.8557699 41.14423 12.192681 41.849609 19L29 19L29 6.1503906 z M 21.5 9C11.852431 9 4 16.852431 4 26.5C4 36.147569 11.852431 44 21.5 44C31.147569 44 39 36.147569 39 26.5 A 1.50015 1.50015 0 0 0 37.5 25L23 25L23 10.5 A 1.50015 1.50015 0 0 0 21.5 9 z M 20 12.150391L20 26.5 A 1.50015 1.50015 0 0 0 21.5 28L35.849609 28C35.092418 35.307332 29.012387 41 21.5 41C13.473569 41 7 34.526431 7 26.5C7 18.987613 12.692668 12.907582 20 12.150391 z"/></svg>