<svg xmlns="http://www.w3.org/2000/svg" viewBox="0 0 48 48">
  <path d="M19.5 3C16.480226 3 14 5.4802259 14 8.5L14 12L10.5 12C9.673 12 9 11.327 9 10.5C9 9.673 9.673 9 10.5 9L12 9L12 8.5C12 7.622 12.158547 6.783 12.435547 6L10.5 6C8.1306239 6 6.203695 7.8471637 6.0332031 10.173828 A 1.50015 1.50015 0 0 0 6 10.5L6 13.5L6 37.5C6 39.967501 8.0324991 42 10.5 42L37.5 42C39.967501 42 42 39.967501 42 37.5L42 16.5C42 14.203405 40.233377 12.305701 38 12.050781L38 8.5C38 5.4802259 35.519774 3 32.5 3L19.5 3 z M 19.5 6L21 6L21 12L17 12L17 8.5C17 7.1017741 18.101774 6 19.5 6 z M 24 6L32.5 6C33.898226 6 35 7.1017741 35 8.5L35 12L24 12L24 6 z M 9 15L15.253906 15 A 1.50015 1.50015 0 0 0 15.740234 15L36.253906 15 A 1.50015 1.50015 0 0 0 36.740234 15L37.5 15C38.346499 15 39 15.653501 39 16.5L39 37.5C39 38.346499 38.346499 39 37.5 39L10.5 39C9.6535009 39 9 38.346499 9 37.5L9 15 z M 33.5 24 A 2.5 2.5 0 0 0 33.5 29 A 2.5 2.5 0 0 0 33.5 24 z" fill="#FFFFFF" />
</svg>