<svg xmlns="http://www.w3.org/2000/svg" viewBox="0 0 48 48"><path d="M17 2C11.494917 2 7 6.494921 7 12C7 17.505079 11.494917 22 17 22C22.505083 22 27 17.505079 27 12C27 6.494921 22.505083 2 17 2 z M 17 5C20.883764 5 24 8.1162385 24 12C24 15.883762 20.883764 19 17 19C13.116236 19 10 15.883762 10 12C10 8.1162385 13.116236 5 17 5 z M 35 24C28.925 24 24 28.925 24 35C24 41.075 28.925 46 35 46C41.075 46 46 41.075 46 35C46 28.925 41.075 24 35 24 z M 6.2226562 26C4.1706562 26 2.5 27.784516 2.5 29.978516L2.5 31.5C2.5 34.781 4.1953906 37.632344 7.2753906 39.527344C9.8663906 41.122344 13.32 42 17 42C19.19 42 21.431516 41.675766 23.478516 41.009766C23.018516 40.128766 22.664062 39.186172 22.414062 38.201172C20.717062 38.735172 18.837 39 17 39C11.461 39 5.5 36.653 5.5 31.5L5.5 29.978516C5.5 29.447516 5.8316562 29 6.2226562 29L23.474609 29C24.049609 27.897 24.778813 26.889 25.632812 26L6.2226562 26 z M 35 27C35.552 27 36 27.448 36 28L36 34L42 34C42.552 34 43 34.448 43 35C43 35.552 42.552 36 42 36L36 36L36 42C36 42.552 35.552 43 35 43C34.448 43 34 42.552 34 42L34 36L28 36C27.448 36 27 35.552 27 35C27 34.448 27.448 34 28 34L34 34L34 28C34 27.448 34.448 27 35 27 z"/></svg>