<svg xmlns="http://www.w3.org/2000/svg" viewBox="0 0 48 48"><path d="M8.5 6C6.5850452 6 5 7.5850452 5 9.5L5 26.5C5 28.414955 6.5850452 30 8.5 30L39.5 30C41.414955 30 43 28.414955 43 26.5L43 9.5C43 7.5850452 41.414955 6 39.5 6L8.5 6 z M 11 9L37 9C37 10.66 38.34 12 40 12L40 24C38.34 24 37 25.34 37 27L11 27C11 25.34 9.66 24 8 24L8 12C9.66 12 11 10.66 11 9 z M 24 11C22.041667 11 20.395258 11.984107 19.412109 13.335938C18.428961 14.687767 18 16.352273 18 18C18 19.647727 18.428961 21.312233 19.412109 22.664062C20.395258 24.015893 22.041667 25 24 25C25.958333 25 27.604742 24.015894 28.587891 22.664062C29.571039 21.312233 30 19.647727 30 18C30 16.352273 29.571039 14.687767 28.587891 13.335938C27.604742 11.984106 25.958333 11 24 11 z M 24 14C25.041666 14 25.645259 14.390893 26.162109 15.101562C26.67896 15.812233 27 16.897727 27 18C27 19.102273 26.67896 20.187767 26.162109 20.898438C25.645259 21.609107 25.041666 22 24 22C22.958334 22 22.354741 21.609106 21.837891 20.898438C21.32104 20.187767 21 19.102273 21 18C21 16.897727 21.32104 15.812232 21.837891 15.101562C22.354741 14.390894 22.958334 14 24 14 z M 12 16 A 2 2 0 0 0 12 20 A 2 2 0 0 0 12 16 z M 36 16 A 2 2 0 0 0 36 20 A 2 2 0 0 0 36 16 z M 23.976562 31.978516 A 1.50015 1.50015 0 0 0 22.5 33.5L22.5 38.878906L21.060547 37.439453 A 1.50015 1.50015 0 1 0 18.939453 39.560547L22.810547 43.431641 A 1.50015 1.50015 0 0 0 25.197266 43.423828L29.060547 39.560547 A 1.50015 1.50015 0 1 0 26.939453 37.439453L25.5 38.878906L25.5 33.5 A 1.50015 1.50015 0 0 0 23.976562 31.978516 z"/></svg>