<svg xmlns="http://www.w3.org/2000/svg" viewBox="0 0 48 48"><path d="M12.5 4C10.032499 4 8 6.0324991 8 8.5L8 22.050781C6.8602309 22.282931 6 23.292928 6 24.5L6 35.5C6 36.707072 6.8602309 37.717069 8 37.949219L8 39.5C8 41.981 10.019 44 12.5 44L35.050781 44L33.025391 41.974609C32.738391 41.687609 32.519609 41.355 32.349609 41L12.5 41C11.673 41 11 40.327 11 39.5L11 38L32.349609 38C32.519609 37.645 32.739391 37.312391 33.025391 37.025391C33.686391 36.364391 34.565 36 35.5 36C36.028 36 36.537 36.115938 37 36.335938L37 35L9 35L9 25L39 25L39 27.351562C39.456 27.133563 39.961 27 40.5 27C41.039 27 41.544 27.133563 42 27.351562L42 24.5C42 23.292928 41.139769 22.282931 40 22.050781L40 18.5 A 1.50015 1.50015 0 0 0 39.560547 17.439453L39.544922 17.423828L26.560547 4.4394531 A 1.50015 1.50015 0 0 0 25.5 4L12.5 4 z M 12.5 7L24 7L24 15.5C24 17.967501 26.032499 20 28.5 20L37 20L37 22L11 22L11 8.5C11 7.6535009 11.653501 7 12.5 7 z M 27 9.1210938L34.878906 17L28.5 17C27.653501 17 27 16.346499 27 15.5L27 9.1210938 z M 16 26C15.448 26 15 26.448 15 27L15 33C15 33.552 15.448 34 16 34C16.552 34 17 33.552 17 33L17 32L18 32C19.654 32 21 30.654 21 29C21 27.346 19.654 26 18 26L16 26 z M 23 26C22.448 26 22 26.448 22 27L22 33C22 33.552 22.448 34 23 34L24 34C26.206 34 28 32.206 28 30C28 27.794 26.206 26 24 26L23 26 z M 30 26C29.448 26 29 26.448 29 27L29 33C29 33.552 29.448 34 30 34C30.552 34 31 33.552 31 33L31 31L32.5 31C33.052 31 33.5 30.552 33.5 30C33.5 29.448 33.052 29 32.5 29L31 29L31 28L33 28C33.552 28 34 27.552 34 27C34 26.448 33.552 26 33 26L30 26 z M 17 28L18 28C18.551 28 19 28.449 19 29C19 29.551 18.551 30 18 30L17 30L17 28 z M 24 28C25.103 28 26 28.897 26 30C26 31.103 25.103 32 24 32L24 28 z M 40.5 29C39.671 29 39 29.671 39 30.5L39 40.878906L36.560547 38.439453C35.974547 37.853453 35.025453 37.853453 34.439453 38.439453C33.853453 39.024453 33.853453 39.975547 34.439453 40.560547L39.439453 45.560547C39.731453 45.853547 40.116 46 40.5 46C40.884 46 41.267547 45.853547 41.560547 45.560547L46.560547 40.560547C47.145547 39.974547 47.145547 39.025453 46.560547 38.439453C45.974547 37.853453 45.025453 37.853453 44.439453 38.439453L42 40.878906L42 30.5C42 29.671 41.329 29 40.5 29 z"/></svg>