<?xml version="1.0" encoding="utf-8"?>
<svg xmlns="http://www.w3.org/2000/svg" viewBox="0 0 30 30" width="40" height="40">
  <path fill="#fff" d="M2.5,25.5v-22h25V25c0,0.3-0.2,0.5-0.5,0.5H2.5z" />
  <path fill="#788b9c" d="M27,4v21H3V4H27 M28,3H2v23h25c0.6,0,1-0.4,1-1V3L28,3z" />
  <path fill="#788b9c" d="M2 3H28V7H2z" />
  <path fill="#8bb7f0" d="M10 11H23V12H10zM7 11H8V12H7zM10 14H23V15H10zM7 14H8V15H7zM10 17H23V18H10zM7 17H8V18H7zM10 20H23V21H10zM7 20H8V21H7z" />
  <path fill="#c8d1db" d="M27,14.7V25H16.2l-1,1H27c0.6,0,1-0.4,1-1v-9.7C27.7,15.1,27.3,14.9,27,14.7z" />
  <path fill="#b6c9d6" d="M17.4,29.5c-0.2,0-0.5-0.1-0.6-0.3c-0.4-0.4-0.4-0.9,0-1.3l5.5-5.2l1.1,1L18,29.2 C17.9,29.4,17.7,29.5,17.4,29.5z" />
  <path fill="#788b9c" d="M22.2,23.4l0.4,0.3l-4.9,5.1C17.6,29,17.5,29,17.4,29s-0.2,0-0.3-0.1c-0.2-0.2-0.2-0.4,0-0.6 L22.2,23.4 M22.2,22.1l-5.8,5.5c-0.6,0.6-0.6,1.4,0,2c0.3,0.3,0.6,0.4,1,0.4s0.7-0.1,1-0.4l5.6-5.9L22.2,22.1L22.2,22.1z" />
  <g>
    <path fill="#c2e8ff" d="M17 21h6v-1h-5.8C17.1 20.3 17 20.7 17 21zM17.9 18H23v-1h-4.5C18.3 17.3 18.1 17.6 17.9 18z" />
  </g>
  <g>
    <path fill="#d1edff" d="M24.5 16.5A5 5 0 1 0 24.5 26.5A5 5 0 1 0 24.5 16.5Z" />
    <path fill="#788b9c" d="M24.5,17c2.5,0,4.5,2,4.5,4.5S27,26,24.5,26S20,24,20,21.5S22,17,24.5,17 M24.5,16 c-3,0-5.5,2.5-5.5,5.5s2.5,5.5,5.5,5.5s5.5-2.5,5.5-5.5S27.5,16,24.5,16L24.5,16z" />
  </g>
</svg>