<svg xmlns="http://www.w3.org/2000/svg"  viewBox="0 0 48 48" width="96px" height="96px"><path d="M 36.5 5 A 6.5 6.5 0 0 0 30.236328 13.207031 L 30.121094 13.263672 L 16.738281 19.953125 L 16.623047 20.009766 A 6.5 6.5 0 0 0 11.5 17.5 A 6.5 6.5 0 0 0 11.5 30.5 A 6.5 6.5 0 0 0 16.626953 27.990234 L 16.738281 28.046875 L 30.121094 34.736328 L 30.230469 34.791016 A 6.5 6.5 0 0 0 36.5 43 A 6.5 6.5 0 0 0 36.5 30 A 6.5 6.5 0 0 0 31.671875 32.158203 L 31.460938 32.052734 L 18.080078 25.363281 L 17.871094 25.259766 A 6.5 6.5 0 0 0 17.869141 22.742188 L 18.080078 22.636719 L 31.460938 15.947266 L 31.666016 15.84375 A 6.5 6.5 0 0 0 36.5 18 A 6.5 6.5 0 0 0 36.5 5 z"/></svg>