<svg xmlns="http://www.w3.org/2000/svg" viewBox="0 0 48 48">
  <path d="M23.945312 8.0019531 A 1.50015 1.50015 0 0 0 22.962891 8.4160156L11.462891 19.416016 A 1.50015 1.50015 0 0 0 12.5 22L35.5 22 A 1.50015 1.50015 0 0 0 36.537109 19.416016L25.037109 8.4160156 A 1.50015 1.50015 0 0 0 23.945312 8.0019531 z M 24 11.576172L31.761719 19L16.238281 19L24 11.576172 z M 12.5 26 A 1.50015 1.50015 0 0 0 11.462891 28.583984L22.962891 39.583984 A 1.50015 1.50015 0 0 0 25.037109 39.583984L36.537109 28.583984 A 1.50015 1.50015 0 0 0 35.5 26L12.5 26 z M 16.238281 29L31.761719 29L24 36.423828L16.238281 29 z" fill="#FFFFFF" />
</svg>