<svg xmlns="http://www.w3.org/2000/svg" viewBox="0 0 48 48">
  <path d="M24 4C12.972066 4 4 12.972074 4 24C4 35.027926 12.972066 44 24 44C35.027934 44 44 35.027926 44 24C44 12.972074 35.027934 4 24 4 z M 24 7C33.406615 7 41 14.593391 41 24C41 33.406609 33.406615 41 24 41C14.593385 41 7 33.406609 7 24C7 14.593391 14.593385 7 24 7 z M 24 14C20.121544 14 16.746693 16.22585 15.089844 19.470703L14.505859 18.023438 A 1.50015 1.50015 0 0 0 13.109375 17.066406 A 1.50015 1.50015 0 0 0 11.724609 19.148438L13.708984 24.0625 A 1.50015 1.50015 0 0 0 15.662109 24.890625L20.576172 22.90625 A 1.50015 1.50015 0 1 0 19.453125 20.125L17.769531 20.804688C18.926698 18.545531 21.272493 17 24 17C26.141323 17 28.038767 17.951124 29.324219 19.455078 A 1.50015 1.50015 0 1 0 31.603516 17.505859C29.770968 15.361814 27.034677 14 24 14 z M 32.880859 23 A 1.50015 1.50015 0 0 0 32.337891 23.109375L27.423828 25.09375 A 1.50015 1.50015 0 1 0 28.546875 27.875L30.230469 27.195312C29.073302 29.454469 26.727507 31 24 31C21.858677 31 19.961233 30.048876 18.675781 28.544922 A 1.50015 1.50015 0 1 0 16.396484 30.494141C18.229032 32.638186 20.965323 34 24 34C27.878456 34 31.253307 31.77415 32.910156 28.529297L33.494141 29.976562 A 1.50015 1.50015 0 1 0 36.275391 28.851562L34.291016 23.9375 A 1.50015 1.50015 0 0 0 32.880859 23 z" fill="#FFFFFF" />
</svg>