<?xml version="1.0" encoding="utf-8"?>
<svg xmlns="http://www.w3.org/2000/svg" viewBox="0 0 48 48" width="48" height="48">
  <path d="M24 4C12.972 4 4 12.972 4 24C4 35.028 12.972 44 24 44C24.527 44 25.043547 43.961875 25.560547 43.921875C24.731547 43.044875 24.021937 42.053656 23.460938 40.972656C14.337938 40.684656 7 33.192 7 24C7 14.626 14.626 7 24 7C33.192 7 40.684656 14.337938 40.972656 23.460938C42.054656 24.021937 43.044875 24.730547 43.921875 25.560547C43.961875 25.043547 44 24.527 44 24C44 12.972 35.028 4 24 4 z M 24.476562 11.978516 A 1.50015 1.50015 0 0 0 23 13.5L23 24L16.5 24 A 1.50015 1.50015 0 1 0 16.5 27L24.5 27 A 1.50015 1.50015 0 0 0 26 25.5L26 13.5 A 1.50015 1.50015 0 0 0 24.476562 11.978516 z M 35 24C28.925 24 24 28.925 24 35C24 41.075 28.925 46 35 46C41.075 46 46 41.075 46 35C46 28.925 41.075 24 35 24 z M 35 27C35.553 27 36 27.448 36 28L36 29.015625C37.544 29.093625 38.528844 29.975031 38.839844 30.457031C39.139844 30.921031 39.006969 31.540844 38.542969 31.839844C38.077969 32.136844 37.458156 32.006969 37.160156 31.542969C37.157156 31.542969 36.726109 31 35.787109 31L34.25 31C33.423 31 32.75 31.673 32.75 32.5C32.75 33.327 33.423 34 34.25 34L36 34C37.93 34 39.5 35.57 39.5 37.5C39.5 39.43 37.93 41 36 41L36 42C36 42.552 35.553 43 35 43C34.447 43 34 42.552 34 42L34 40.996094C32.756 40.987094 31.617969 40.532031 30.792969 39.707031C30.401969 39.316031 30.401969 38.685922 30.792969 38.294922C31.183969 37.903922 31.816031 37.903922 32.207031 38.294922C32.529031 38.615922 33.108109 39 34.037109 39L36 39C36.827 39 37.5 38.327 37.5 37.5C37.5 36.673 36.827 36 36 36L34.25 36C32.32 36 30.75 34.43 30.75 32.5C30.75 30.656 32.189 29.156391 34 29.025391L34 28C34 27.448 34.447 27 35 27 z" fill="#FFFFFF" />
</svg>