<?xml version="1.0" encoding="utf-8"?>
<svg xmlns="http://www.w3.org/2000/svg" viewBox="0 0 48 48" width="50" height="50">
  <path d="M24 4C12.972066 4 4 12.972074 4 24C4 35.027926 12.972066 44 24 44C35.027934 44 44 35.027926 44 24C44 12.972074 35.027934 4 24 4 z M 24 7C28.159946 7 31.91445 8.5434723 34.865234 11.013672L11.013672 34.863281C8.544055 31.912656 7 28.1594 7 24C7 14.593391 14.593385 7 24 7 z M 36.986328 13.134766C39.456525 16.085553 41 19.840056 41 24C41 33.406609 33.406615 41 24 41C19.840597 41 16.087341 39.455948 13.136719 36.986328L36.986328 13.134766 z" />
</svg>