<svg xmlns="http://www.w3.org/2000/svg" viewBox="0 0 48 48"><path d="M24 4C18.494917 4 14 8.494921 14 14C14 19.505079 18.494917 24 24 24C29.505083 24 34 19.505079 34 14C34 8.494921 29.505083 4 24 4 z M 24 7C27.883764 7 31 10.116238 31 14C31 17.883762 27.883764 21 24 21C20.116236 21 17 17.883762 17 14C17 10.116238 20.116236 7 24 7 z M 11.978516 28C9.7987044 28 8 29.798705 8 31.978516L8 33.5C8 37.104167 10.27927 39.892227 13.306641 41.5625C16.334011 43.232773 20.168103 44 24 44C27.831897 44 31.665989 43.232773 34.693359 41.5625C37.274641 40.138345 39.217335 37.862616 39.761719 35L40.001953 35L40.001953 31.978516C40.001953 29.798705 38.201295 28 36.021484 28L11.978516 28 z M 11.978516 31L36.021484 31C36.579674 31 37.001953 31.420326 37.001953 31.978516L37.001953 32L37 32L37 33.5C37 35.895833 35.65427 37.607773 33.244141 38.9375C30.834011 40.267227 27.418103 41 24 41C20.581897 41 17.165989 40.267227 14.755859 38.9375C12.34573 37.607773 11 35.895833 11 33.5L11 31.978516C11 31.420326 11.420326 31 11.978516 31 z"/></svg>