<svg xmlns="http://www.w3.org/2000/svg" viewBox="0 0 48 48">
  <path d="M21.5 2C17.375499 2 14 5.3754991 14 9.5C14 10.376199 14.160242 11.21629 14.439453 12L10.5 12C9.673 12 9 11.327 9 10.5C9 9.673 9.673 9 10.5 9L12.025391 9C12.080391 7.945 12.301828 6.936 12.673828 6L10.5 6C8.1306239 6 6.203695 7.8471637 6.0332031 10.173828 A 1.50015 1.50015 0 0 0 6 10.5L6 13.5L6 37.5C6 39.967501 8.0324991 42 10.5 42L37.5 42C39.967501 42 42 39.967501 42 37.5L42 16.5C42 14.173334 40.187046 12.25488 37.912109 12.041016C37.96386 11.700419 38 11.354257 38 11C38 7.1515984 34.848402 4 31 4C29.709498 4 28.502164 4.3603387 27.460938 4.9765625C26.088523 3.1720469 23.92938 2 21.5 2 z M 21.5 5C23.078762 5 24.445465 5.8117606 25.248047 7.0273438C24.462683 8.1583354 24 9.5274286 24 11C24 11.339877 24.032354 11.672613 24.080078 12L17.779297 12C17.29273 11.283638 17 10.434944 17 9.5C17 6.9965009 18.996501 5 21.5 5 z M 31 7C33.227598 7 35 8.7724016 35 11C35 11.347188 34.953074 11.680521 34.869141 12L27.130859 12C27.046926 11.680521 27 11.347188 27 11C27 8.7724016 28.772402 7 31 7 z M 9 15L37.5 15C38.346499 15 39 15.653501 39 16.5L39 37.5C39 38.346499 38.346499 39 37.5 39L10.5 39C9.6535009 39 9 38.346499 9 37.5L9 15 z M 33.5 24 A 2.5 2.5 0 0 0 33.5 29 A 2.5 2.5 0 0 0 33.5 24 z" fill="#FFFFFF" />
</svg>